GIL08_free_20kg_backpack_grf_custom.mot																		
version=4																		
nRows=73																		
nColumns=19																		
inDegrees=yes																		
endheader																		
																		
time	     ground_force_vx	     ground_force_vy	     ground_force_vz	     ground_force_px	     ground_force_py	     ground_force_pz	     1_ground_force_vx	     1_ground_force_vy	     1_ground_force_vz	     1_ground_force_px	     1_ground_force_py	     1_ground_force_pz	     ground_torque_x	     ground_torque_y	     ground_torque_z	     1_ground_torque_x	    1_ground_torque_y	     1_ground_torque_z
0.14999999	0	0	0	1.94790283	0	0.084339165	-96.50783469	761.191116	23.15023027	1.4525979	0	-0.084339165	0	0	0	0	1.250828898	0
0.15833332	0	0	0	1.95125464	0	0.083397195	-91.36536467	773.2259579	22.97776187	1.4521084	0	-0.084372275	0	0	0	0	1.280862903	0
0.16666666	0	0	0	1.95497363	0	0.082441695	-84.9007249	783.1205356	22.29952977	1.45151733	0	-0.084386985	0	0	0	0	1.318746932	0
0.17499998	0	0	0	1.95900757	0	0.081484355	-77.87819122	788.5216383	21.20471338	1.45090723	0	-0.084384845	0	0	0	0	1.338839088	0
0.18333332	0	0	0	1.96327637	0	0.080522745	-70.83623556	789.3207078	19.87723507	1.45035022	0	-0.084377465	0	0	0	0	1.324504001	0
0.19166665	0	0	0	1.96766113	0	0.079551125	-64.11184948	786.4361411	18.51037057	1.44990991	0	-0.084376605	0	0	0	0	1.271455143	0
0.19999999	0	0	0	1.97203857	0	0.078566725	-57.88404615	780.889729	17.37350438	1.44965356	0	-0.084389455	0	0	0	0	1.181795354	0
0.20833331	0	0	0	1.97630591	0	0.077571845	-52.23405934	773.4697973	16.64796171	1.44965308	0	-0.084414115	0	0	0	0	1.066119034	0
0.21666665	0	0	0	1.98038281	0	0.076570565	-47.22248314	764.742898	16.33233329	1.44996619	0	-0.084448535	0	0	0	0	0.939582329	0
0.22499999	0	0	0	1.9842124	0	0.075573225	-42.81339522	755.1383638	16.32452616	1.45060168	0	-0.084494675	0	0	0	0	0.813514158	0
0.23333332	0	0	0	1.98777222	0	0.074596695	-38.82579516	744.9706709	16.52333644	1.45152454	0	-0.084548325	0	0	0	0	0.689540832	0
0.24166664	0	0	0	1.99107446	0	0.073658615	-35.13059612	734.6029021	16.82348302	1.45269604	0	-0.084599145	0	0	0	0	0.563689936	0
0.24999999	0	0	0	1.9941543	0	0.072774405	-31.7874264	724.493077	17.11865486	1.45411108	0	-0.084635795	0	0	0	0	0.430461743	0
0.25833333	0	0	0	1.99705029	0	0.071960855	-28.85933901	714.9569546	17.2739602	1.45578491	0	-0.084657155	0	0	0	0	0.284749134	0
0.26666665	0	0	0	1.99980151	0	0.071233895	-26.21262801	706.2701318	17.15169215	1.45774731	0	-0.084656335	0	0	0	0	0.11994356	0
0.27499998	0	0	0	2.00243018	0	0.070605935	-23.62326142	698.7819158	16.72077237	1.46002356	0	-0.084628655	0	0	0	0	-0.062496224	0
0.2833333	0	0	0	2.00493335	0	0.070078225	-20.9326875	692.5403154	16.11364196	1.4626366	0	-0.084582845	0	0	0	0	-0.254447284	0
0.29166666	0	0	0	2.00730664	0	0.069637035	-18.09023531	687.264931	15.56837628	1.46561975	0	-0.084531025	0	0	0	0	-0.44879614	0
0.29999998	0	0	0	2.00958105	0	0.069253445	-15.17362502	682.7001097	15.29222036	1.46902588	0	-0.084473505	0	0	0	0	-0.636092578	0
0.30833334	0	0	0	2.01181396	0	0.068894755	-12.35827564	678.6381278	15.35563895	1.47289563	0	-0.084405235	0	0	0	0	-0.807941266	0
0.31666666	0	0	0	2.01401758	0	0.068542885	-9.844849498	675.0454408	15.71469237	1.47721326	0	-0.084322315	0	0	0	0	-0.966261066	0
0.32499999	0	0	0	2.0161272	0	0.068191995	-7.779622429	672.0547323	16.26994601	1.48194324	0	-0.084228535	0	0	0	0	-1.110311631	0
0.33333331	0	0	0	2.01805371	0	0.067846405	-6.138800745	669.8212818	16.93682002	1.48704004	0	-0.084117875	0	0	0	0	-1.23173755	0
0.34166664	0	0	0	2.01975537	0	0.067512495	-4.700234181	668.5258304	17.66964025	1.49240491	0	-0.083981065	0	0	0	0	-1.322785267	0
0.34999996	0	0	0	2.02125903	0	0.067202225	-3.237122101	668.2929476	18.40426411	1.49792041	0	-0.083816155	0	0	0	0	-1.384894932	0
0.35833332	0	0	0	2.02262134	0	0.066933955	-1.65650546	669.1363692	19.02331516	1.50352502	0	-0.083619615	0	0	0	0	-1.42612081	0
0.36666664	0	0	0	2.02389575	0	0.066709485	0.037747307	670.9783791	19.43511857	1.50920874	0	-0.083378345	0	0	0	0	-1.454076702	0
0.375	0	0	0	2.02513867	0	0.066522335	1.773547718	673.7000978	19.62733888	1.51498572	0	-0.083091085	0	0	0	0	-1.469134994	0
0.38333333	0	0	0	2.02639453	0	0.066370265	3.40040435	677.2780354	19.60284723	1.52088025	0	-0.082764975	0	0	0	0	-1.471772168	0
0.39166665	0	0	0	2.02767993	0	0.066256355	4.725712881	681.7231687	19.32201654	1.52688208	0	-0.082414025	0	0	0	0	-1.468049789	0
0.39999998	0	0	0	2.02901123	0	0.066189095	5.670078897	686.9830667	18.81054095	1.53294006	0	-0.082053705	0	0	0	0	-1.469128087	0
0.40833333	0	0	0	2.03042529	0	0.066166975	6.36542813	692.8296426	18.20251934	1.53899927	0	-0.081701375	0	0	0	0	-1.483096376	0
0.41666666	0	0	0	2.03194604	0	0.066175515	7.047610074	699.1147806	17.6770588	1.5449884	0	-0.081370995	0	0	0	0	-1.506388944	0
0.42499998	0	0	0	2.03354639	0	0.066203775	7.959882034	705.9039493	17.35274324	1.55080005	0	-0.081073875	0	0	0	0	-1.531168039	0
0.43333331	0	0	0	2.0351709	0	0.066234725	9.302551128	713.4992721	17.26059916	1.55629846	0	-0.080820025	0	0	0	0	-1.556919619	0
0.44166666	0	0	0	2.03676709	0	0.066262795	11.22585419	722.3280198	17.36296079	1.56134436	0	-0.080615105	0	0	0	0	-1.589224475	0
0.44999999	0	0	0	2.03828857	0	0.066294185	13.89856189	732.8976895	17.63069821	1.5658031	0	-0.080460955	0	0	0	0	-1.629609018	0
0.45833331	0	0	0	2.03969702	0	0.066345055	17.52010199	745.7909497	18.09895064	1.56955212	0	-0.080359025	0	0	0	0	-1.67077485	0
0.46666664	0	0	0	2.04098535	0	0.066437695	22.18094085	761.4060432	18.83542973	1.57253662	0	-0.080305435	0	0	0	0	-1.694785679	0
0.47499999	0	0	0	2.04217773	0	0.066586295	27.82326668	779.696703	19.89626637	1.57478308	0	-0.080295435	0	0	0	0	-1.674708813	0
0.48333332	0	0	0	2.04327832	0	0.066790035	34.33735696	800.1095627	21.12569491	1.57640088	0	-0.080314255	0	0	0	0	-1.612350494	0
0.49166664	0	0	0	2.04424854	0	0.067032615	41.51807901	821.7271443	21.89211441	1.57757178	0	-0.080333365	0	0	0	0	-1.588058245	0
0.49999997	0	0	0	2.0450918	0	0.067272075	48.87422265	843.5632804	21.86685907	1.57849536	0	-0.080330705	0	0	0	0	-1.663130195	0
0.50833333	0	0	0	2.04594458	0	0.067449165	56.42163786	864.6932051	21.38028814	1.57930762	0	-0.080320695	0	0	0	0	-1.7983594	0
0.51666665	0	0	0	2.04705078	0	0.067492015	64.33710294	884.3571614	20.80281881	1.58009216	0	-0.080324635	0	0	0	0	-1.938600026	0
0.52499998	0	0	0	2.04869019	0	0.067272475	72.46375597	902.0553793	20.32877389	1.58087842	0	-0.080358445	0	0	0	0	-2.051741988	0
0.5333333	0	0	0	2.05123364	0	0.066645795	80.7194524	917.1776874	20.03962529	1.58166931	0	-0.080435135	0	0	0	0	-2.118661802	0
0.54166663	0	0	0	2.05506177	0	0.065573715	89.10646679	928.9063683	19.95461187	1.58246619	0	-0.080564865	0	0	0	0	-2.126176524	0
0.54999995	0	0	0	2.06023462	0	0.064190595	97.54947657	936.4808167	19.97387519	1.58326965	0	-0.080749925	0	0	0	0	-2.070271435	0
0.55833328	0	0	0	2.06640723	0	0.062767865	105.9144807	939.3002839	19.90337206	1.58408093	0	-0.080984425	0	0	0	0	-1.956514648	0
0.56666666	0	0	0	2.073021	0	0.061592265	114.0816687	936.9817745	19.54736625	1.58489709	0	-0.081246415	0	0	0	0	-1.798067187	0
0.57499999	0	0	0	2.07932178	0	0.060789075	121.9838135	929.441865	18.75865653	1.58569543	0	-0.081501515	0	0	0	0	-1.606883739	0
0.58333331	-2.236916755	9.425864632	-0.430512901	2.08457813	0	0.060216045	129.5414903	916.8758967	17.46139961	1.58643286	0	-0.081722095	0	0.03405608	0	0	-1.386341062	0
0.59166664	-10.504307	68.52020411	-1.660830915	2.08859521	0	0.059664425	136.6585518	899.5083615	15.66858007	1.58705835	0	-0.081902635	0	0.097424874	0	0	-1.126723621	0
0.60000002	-23.61870734	175.3582628	-3.273852741	2.09167871	0	0.059079355	143.1538296	877.2146481	13.4915241	1.58751819	0	-0.082043445	0	0.186198628	0	0	-0.811966353	0
0.60833335	-34.63933223	277.8879966	-3.113947437	2.09398315	0	0.058477395	148.6343323	848.9055223	11.11617952	1.5878241	0	-0.082126915	0	0.215759908	0	0	-0.436188884	0
0.61666667	-41.68540213	333.3099804	0.019924977	2.09660645	0	0.057884955	152.2645982	812.7345338	8.767068735	1.58811108	0	-0.082106985	0	0.153195278	0	0	-0.016371487	0
0.625	-50.47367158	365.3462741	4.11519487	2.10007446	0	0.057311595	153.0266648	767.8444088	6.422576196	1.5885011	0	-0.081931995	0	0.038498518	0	0	0.382617246	0
0.63333333	-62.1759779	391.5905379	7.511330619	2.10461401	0	0.056768445	150.8058879	714.2529994	3.719864163	1.58896948	0	-0.081612235	0	-0.086675163	0	0	0.682367326	0
0.64166665	-75.00079151	423.3503911	9.337760257	2.11040674	0	0.056121775	146.3877499	651.360514	0.617189452	1.58940063	0	-0.081218675	0	-0.124545771	0	0	0.860234414	0
0.64999998	-89.95834707	468.0876006	9.549256862	2.11694458	0	0.055156705	139.5940415	578.2916329	-2.572807449	1.58973486	0	-0.080836045	0	0.093969078	0	0	0.928704508	0
0.6583333	-108.3846954	524.1491237	8.711361383	2.12344678	0	0.053840405	128.9893316	494.4866646	-5.531548048	1.59010046	0	-0.080481895	0	0.626631484	0	0	0.889886651	0
0.66666663	-127.4243538	584.0772092	7.323290419	2.12923218	0	0.052397955	112.6626752	401.2491262	-7.937793152	1.59086389	0	-0.080032645	0	1.217843692	0	0	0.740517243	0
0.67500001	-141.4211503	640.3462243	5.809659742	2.13383032	0	0.051125685	89.46059673	304.1631733	-9.481841866	1.59263208	0	-0.079194535	0	1.441619919	0	0	0.497192332	0
0.68333334	-147.4491723	689.8337066	3.726602509	2.1370542	0	0.050245295	61.07257635	213.4223748	-10.02988947	1.596245	0	-0.077552115	0	1.217871869	0	0	0.219911575	0
0.69166666	-148.0896657	733.7332169	0.107350731	2.13914233	0	0.049813445	32.89820285	140.0124692	-9.706689175	1.60238525	0	-0.074798875	0	0.853473063	0	0	0.010879679	0
0.69999999	-146.2852606	771.6194512	-4.485822674	2.14050684	0	0.049729995	11.27458276	88.7330429	-8.83129807	1.61058594	0	-0.071364005	0	0.49990168	0	0	-0.067655222	0
0.70833331	-142.4083126	801.0024806	-8.82526319	2.14146729	0	0.049844235	-1.222599199	55.84430737	-7.456763224	1.61902771	0	-0.068537525	0	0.123048284	0	0	-0.076732997	0
0.71666664	-137.1377908	820.9879512	-12.84356534	2.14229028	0	0.050056375	-6.274951731	34.67347644	-5.443869383	1.62616956	0	-0.067172535	0	-0.252647819	0	0	-0.088680596	0
0.72499996	-131.502021	831.621455	-16.58248956	2.14318188	0	0.050304225	-6.332889973	19.82368555	-3.133020941	1.63180273	0	-0.067452935	0	-0.598416463	0	0	-0.102590284	0
0.73333329	-125.5375088	833.7234467	-19.60522888	2.14421509	0	0.050532875	0	0	0	1.63799976	0	-0.067006215	0	-0.920908808	0	0	0	0
0.74166667	-118.7921624	829.4687605	-21.69844699	2.14535938	0	0.050713225	0	0	0	1.64583948	0	-0.064950915	0	-1.219710792	0	0	0	0
0.75	-111.1318992	820.6853593	-22.90902687	2.14659106	0	0.050835945	0	0	0	1.65442432	0	-0.061687825	0	-1.488047665	0	0	0	0
